<?xml version="1.0" encoding="UTF-8" standalone="no"?>
<!DOCTYPE svg PUBLIC "-//W3C//DTD SVG 1.1//EN"
 "http://www.w3.org/Graphics/SVG/1.1/DTD/svg11.dtd">
<!-- Generated by graphviz version 2.47.0 (20210316.0004)
 -->
<!-- Title: dependencies Pages: 1 -->
<svg width="1437pt" height="279pt"
 viewBox="0.00 0.00 1437.00 279.00" xmlns="http://www.w3.org/2000/svg" xmlns:xlink="http://www.w3.org/1999/xlink">
<g id="graph0" class="graph" transform="scale(1 1) rotate(0) translate(4 275)">
<title>dependencies</title>
<polygon fill="white" stroke="transparent" points="-4,4 -4,-275 1433,-275 1433,4 -4,4"/>
<text text-anchor="start" x="693.51" y="-42.4" font-family="Times-12" font-weight="bold" font-size="14.00">Legend</text>
<polygon fill="#ffffb3" stroke="transparent" points="480.5,-10 480.5,-30 500.5,-30 500.5,-10 480.5,-10"/>
<text text-anchor="start" x="504.13" y="-15.4" font-family="Times-12" font-size="14.00"> &#160;Declarations</text>
<polygon fill="#8dd3c7" stroke="transparent" points="593.5,-10 593.5,-30 613.5,-30 613.5,-10 593.5,-10"/>
<text text-anchor="start" x="617.23" y="-15.4" font-family="Times-12" font-size="14.00"> &#160;Module</text>
<polygon fill="#80b1d3" stroke="transparent" points="679.5,-10 679.5,-30 699.5,-30 699.5,-10 679.5,-10"/>
<text text-anchor="start" x="703.28" y="-15.4" font-family="Times-12" font-size="14.00"> &#160;Bootstrap</text>
<polygon fill="#fdb462" stroke="transparent" points="776.5,-10 776.5,-30 796.5,-30 796.5,-10 776.5,-10"/>
<text text-anchor="start" x="800.17" y="-15.4" font-family="Times-12" font-size="14.00"> &#160;Providers</text>
<polygon fill="#fb8072" stroke="transparent" points="872.5,-10 872.5,-30 892.5,-30 892.5,-10 872.5,-10"/>
<text text-anchor="start" x="896.23" y="-15.4" font-family="Times-12" font-size="14.00"> &#160;Exports</text>
<g id="clust1" class="cluster">
<title>cluster_AppModule</title>
<polygon fill="none" stroke="black" stroke-dasharray="1,5" points="8,-70 8,-263 501,-263 501,-70 8,-70"/>
</g>
<g id="clust3" class="cluster">
<title>cluster_AppModule_imports</title>
<polygon fill="none" stroke="black" points="168,-78 168,-198 493,-198 493,-78 168,-78"/>
</g>
<g id="clust6" class="cluster">
<title>cluster_AppModule_providers</title>
<polygon fill="none" stroke="black" points="16,-146 16,-198 146,-198 146,-146 16,-146"/>
</g>
<g id="clust7" class="cluster">
<title>cluster_AuthModule</title>
<polygon fill="none" stroke="black" stroke-dasharray="1,5" points="509,-70 509,-138 791,-138 791,-70 509,-70"/>
</g>
<g id="clust12" class="cluster">
<title>cluster_AuthModule_providers</title>
<polygon fill="none" stroke="black" points="517,-78 517,-130 783,-130 783,-78 517,-78"/>
</g>
<g id="clust13" class="cluster">
<title>cluster_PrismaModule</title>
<polygon fill="none" stroke="black" stroke-dasharray="1,5" points="799,-70 799,-138 1089,-138 1089,-70 799,-70"/>
</g>
<g id="clust16" class="cluster">
<title>cluster_PrismaModule_exports</title>
<polygon fill="none" stroke="black" points="965,-78 965,-130 1081,-130 1081,-78 965,-78"/>
</g>
<g id="clust18" class="cluster">
<title>cluster_PrismaModule_providers</title>
<polygon fill="none" stroke="black" points="807,-78 807,-130 957,-130 957,-78 807,-78"/>
</g>
<g id="clust19" class="cluster">
<title>cluster_SchoolModule</title>
<polygon fill="none" stroke="black" stroke-dasharray="1,5" points="1097,-70 1097,-138 1263,-138 1263,-70 1097,-70"/>
</g>
<g id="clust24" class="cluster">
<title>cluster_SchoolModule_providers</title>
<polygon fill="none" stroke="black" points="1105,-78 1105,-130 1255,-130 1255,-78 1105,-78"/>
</g>
<g id="clust25" class="cluster">
<title>cluster_TaskModule</title>
<polygon fill="none" stroke="black" stroke-dasharray="1,5" points="1271,-70 1271,-138 1421,-138 1421,-70 1271,-70"/>
</g>
<g id="clust30" class="cluster">
<title>cluster_TaskModule_providers</title>
<polygon fill="none" stroke="black" points="1279,-78 1279,-130 1413,-130 1413,-78 1279,-78"/>
</g>
<!-- AuthModule -->
<g id="node1" class="node">
<title>AuthModule</title>
<polygon fill="#8dd3c7" stroke="black" points="263.55,-190 260.55,-194 239.55,-194 236.55,-190 176.45,-190 176.45,-154 263.55,-154 263.55,-190"/>
<text text-anchor="middle" x="220" y="-167.8" font-family="Times,serif" font-size="14.00">AuthModule</text>
</g>
<!-- AppModule -->
<g id="node5" class="node">
<title>AppModule</title>
<polygon fill="#8dd3c7" stroke="black" points="261.66,-255 258.66,-259 237.66,-259 234.66,-255 178.34,-255 178.34,-219 261.66,-219 261.66,-255"/>
<text text-anchor="middle" x="220" y="-232.8" font-family="Times,serif" font-size="14.00">AppModule</text>
</g>
<!-- AuthModule&#45;&gt;AppModule -->
<g id="edge1" class="edge">
<title>AuthModule&#45;&gt;AppModule</title>
<path fill="none" stroke="black" d="M220,-190.11C220,-190.11 220,-208.99 220,-208.99"/>
<polygon fill="black" stroke="black" points="216.5,-208.99 220,-218.99 223.5,-208.99 216.5,-208.99"/>
</g>
<!-- PrismaModule -->
<g id="node2" class="node">
<title>PrismaModule</title>
<polygon fill="#8dd3c7" stroke="black" points="432.43,-122 429.43,-126 408.43,-126 405.43,-122 333.57,-122 333.57,-86 432.43,-86 432.43,-122"/>
<text text-anchor="middle" x="383" y="-99.8" font-family="Times,serif" font-size="14.00">PrismaModule</text>
</g>
<!-- PrismaModule&#45;&gt;AuthModule -->
<g id="edge6" class="edge">
<title>PrismaModule&#45;&gt;AuthModule</title>
<path fill="none" stroke="black" d="M333.45,-104C278.69,-104 198.11,-104 198.11,-104 198.11,-104 198.11,-143.78 198.11,-143.78"/>
<polygon fill="black" stroke="black" points="194.61,-143.78 198.11,-153.78 201.61,-143.78 194.61,-143.78"/>
</g>
<!-- SchoolModule -->
<g id="node3" class="node">
<title>SchoolModule</title>
<polygon fill="#8dd3c7" stroke="black" points="380.44,-190 377.44,-194 356.44,-194 353.44,-190 281.56,-190 281.56,-154 380.44,-154 380.44,-190"/>
<text text-anchor="middle" x="331" y="-167.8" font-family="Times,serif" font-size="14.00">SchoolModule</text>
</g>
<!-- PrismaModule&#45;&gt;SchoolModule -->
<g id="edge11" class="edge">
<title>PrismaModule&#45;&gt;SchoolModule</title>
<path fill="none" stroke="black" d="M349.26,-122.22C349.26,-122.22 349.26,-143.73 349.26,-143.73"/>
<polygon fill="black" stroke="black" points="345.76,-143.73 349.26,-153.73 352.76,-143.73 345.76,-143.73"/>
</g>
<!-- TaskModule -->
<g id="node4" class="node">
<title>TaskModule</title>
<polygon fill="#8dd3c7" stroke="black" points="485.26,-190 482.26,-194 461.26,-194 458.26,-190 398.74,-190 398.74,-154 485.26,-154 485.26,-190"/>
<text text-anchor="middle" x="442" y="-167.8" font-family="Times,serif" font-size="14.00">TaskModule</text>
</g>
<!-- PrismaModule&#45;&gt;TaskModule -->
<g id="edge13" class="edge">
<title>PrismaModule&#45;&gt;TaskModule</title>
<path fill="none" stroke="black" d="M407.02,-122.22C407.02,-122.22 407.02,-143.73 407.02,-143.73"/>
<polygon fill="black" stroke="black" points="403.52,-143.73 407.02,-153.73 410.52,-143.73 403.52,-143.73"/>
</g>
<!-- PrismaModule&#45;&gt;AppModule -->
<g id="edge2" class="edge">
<title>PrismaModule&#45;&gt;AppModule</title>
<path fill="none" stroke="black" d="M389.42,-122.21C389.42,-158.64 389.42,-237 389.42,-237 389.42,-237 271.88,-237 271.88,-237"/>
<polygon fill="black" stroke="black" points="271.88,-233.5 261.88,-237 271.88,-240.5 271.88,-233.5"/>
</g>
<!-- PrismaService  -->
<g id="node9" class="node">
<title>PrismaService </title>
<polygon fill="#fb8072" stroke="black" points="1073.36,-122 972.64,-122 972.64,-86 1073.36,-86 1073.36,-122"/>
<text text-anchor="middle" x="1023" y="-99.8" font-family="Times,serif" font-size="14.00">PrismaService </text>
</g>
<!-- PrismaModule&#45;&gt;PrismaService  -->
<g id="edge9" class="edge">
<title>PrismaModule&#45;&gt;PrismaService </title>
<path fill="none" stroke="black" stroke-dasharray="5,2" d="M415.42,-122.2C415.42,-128.03 415.42,-133 415.42,-133 415.42,-133 1023,-133 1023,-133 1023,-133 1023,-131.92 1023,-131.92"/>
<polygon fill="black" stroke="black" points="1026.5,-132.2 1023,-122.2 1019.5,-132.2 1026.5,-132.2"/>
</g>
<!-- SchoolModule&#45;&gt;AppModule -->
<g id="edge3" class="edge">
<title>SchoolModule&#45;&gt;AppModule</title>
<path fill="none" stroke="black" d="M331,-190.03C331,-206.4 331,-228 331,-228 331,-228 271.96,-228 271.96,-228"/>
<polygon fill="black" stroke="black" points="271.96,-224.5 261.96,-228 271.96,-231.5 271.96,-224.5"/>
</g>
<!-- TaskModule&#45;&gt;AppModule -->
<g id="edge4" class="edge">
<title>TaskModule&#45;&gt;AppModule</title>
<path fill="none" stroke="black" d="M442,-190.29C442,-212.21 442,-246 442,-246 442,-246 271.76,-246 271.76,-246"/>
<polygon fill="black" stroke="black" points="271.76,-242.5 261.76,-246 271.76,-249.5 271.76,-242.5"/>
</g>
<!-- AppService -->
<g id="node6" class="node">
<title>AppService</title>
<ellipse fill="#fdb462" stroke="black" cx="81" cy="-172" rx="56.74" ry="18"/>
<text text-anchor="middle" x="81" y="-167.8" font-family="Times,serif" font-size="14.00">AppService</text>
</g>
<!-- AppService&#45;&gt;AppModule -->
<g id="edge5" class="edge">
<title>AppService&#45;&gt;AppModule</title>
<path fill="none" stroke="black" d="M81,-190.11C81,-209.34 81,-237 81,-237 81,-237 168.3,-237 168.3,-237"/>
<polygon fill="black" stroke="black" points="168.3,-240.5 178.3,-237 168.3,-233.5 168.3,-240.5"/>
</g>
<!-- AuthService -->
<g id="node7" class="node">
<title>AuthService</title>
<ellipse fill="#fdb462" stroke="black" cx="716" cy="-104" rx="59.11" ry="18"/>
<text text-anchor="middle" x="716" y="-99.8" font-family="Times,serif" font-size="14.00">AuthService</text>
</g>
<!-- AuthService&#45;&gt;AuthModule -->
<g id="edge7" class="edge">
<title>AuthService&#45;&gt;AuthModule</title>
<path fill="none" stroke="black" d="M716,-122.13C716,-132.71 716,-144 716,-144 716,-144 241.89,-144 241.89,-144 241.89,-144 241.89,-144.98 241.89,-144.98"/>
<polygon fill="black" stroke="black" points="238.39,-143.79 241.89,-153.79 245.39,-143.79 238.39,-143.79"/>
</g>
<!-- JwtStrategy -->
<g id="node8" class="node">
<title>JwtStrategy</title>
<ellipse fill="#fdb462" stroke="black" cx="582" cy="-104" rx="56.76" ry="18"/>
<text text-anchor="middle" x="582" y="-99.8" font-family="Times,serif" font-size="14.00">JwtStrategy</text>
</g>
<!-- JwtStrategy&#45;&gt;AuthModule -->
<g id="edge8" class="edge">
<title>JwtStrategy&#45;&gt;AuthModule</title>
<path fill="none" stroke="black" d="M582,-122.19C582,-130.28 582,-138 582,-138 582,-138 220,-138 220,-138 220,-138 220,-143.81 220,-143.81"/>
<polygon fill="black" stroke="black" points="216.5,-143.81 220,-153.81 223.5,-143.81 216.5,-143.81"/>
</g>
<!-- PrismaService -->
<g id="node10" class="node">
<title>PrismaService</title>
<ellipse fill="#fdb462" stroke="black" cx="882" cy="-104" rx="66.63" ry="18"/>
<text text-anchor="middle" x="882" y="-99.8" font-family="Times,serif" font-size="14.00">PrismaService</text>
</g>
<!-- PrismaService&#45;&gt;PrismaModule -->
<g id="edge10" class="edge">
<title>PrismaService&#45;&gt;PrismaModule</title>
<path fill="none" stroke="black" d="M859.73,-121.19C859.73,-125.03 859.73,-128 859.73,-128 859.73,-128 423.82,-128 423.82,-128 423.82,-128 423.82,-127.42 423.82,-127.42"/>
<polygon fill="black" stroke="black" points="427.32,-132.19 423.82,-122.19 420.32,-132.19 427.32,-132.19"/>
</g>
<!-- PrismaService&#45;&gt;TaskModule -->
<g id="edge14" class="edge">
<title>PrismaService&#45;&gt;TaskModule</title>
<path fill="none" stroke="black" d="M904.27,-121.27C904.27,-139.62 904.27,-166 904.27,-166 904.27,-166 495.49,-166 495.49,-166"/>
<polygon fill="black" stroke="black" points="495.49,-162.5 485.49,-166 495.49,-169.5 495.49,-162.5"/>
</g>
<!-- SchoolService -->
<g id="node11" class="node">
<title>SchoolService</title>
<ellipse fill="#fdb462" stroke="black" cx="1180" cy="-104" rx="66.63" ry="18"/>
<text text-anchor="middle" x="1180" y="-99.8" font-family="Times,serif" font-size="14.00">SchoolService</text>
</g>
<!-- SchoolService&#45;&gt;SchoolModule -->
<g id="edge12" class="edge">
<title>SchoolService&#45;&gt;SchoolModule</title>
<path fill="none" stroke="black" d="M1180,-122.04C1180,-134.56 1180,-149 1180,-149 1180,-149 364.74,-149 364.74,-149 364.74,-149 364.74,-149.49 364.74,-149.49"/>
<polygon fill="black" stroke="black" points="361.24,-143.88 364.74,-153.88 368.24,-143.88 361.24,-143.88"/>
</g>
<!-- TaskService -->
<g id="node12" class="node">
<title>TaskService</title>
<ellipse fill="#fdb462" stroke="black" cx="1346" cy="-104" rx="58.53" ry="18"/>
<text text-anchor="middle" x="1346" y="-99.8" font-family="Times,serif" font-size="14.00">TaskService</text>
</g>
<!-- TaskService&#45;&gt;TaskModule -->
<g id="edge15" class="edge">
<title>TaskService&#45;&gt;TaskModule</title>
<path fill="none" stroke="black" d="M1346,-122.29C1346,-144.21 1346,-178 1346,-178 1346,-178 495.3,-178 495.3,-178"/>
<polygon fill="black" stroke="black" points="495.3,-174.5 485.3,-178 495.3,-181.5 495.3,-174.5"/>
</g>
</g>
</svg>
